<svg xmlns="http://www.w3.org/2000/svg" xmlns:xlink="http://www.w3.org/1999/xlink" width="480" height="172" viewBox="0 0 480 172">
    <defs>
        <path id="a" d="M0 .171h479.669v95.633H0z"/>
    </defs>
    <g fill="none" fill-rule="evenodd">
        <path fill="#FFF" d="M315.994 1.124c46.703 0 84.562 37.977 84.562 84.824 0 46.848-37.86 84.825-84.562 84.825"/>
        <path stroke="#5493F7" stroke-width="1.07" d="M315.994 1.124c46.703 0 84.562 37.977 84.562 84.824 0 46.848-37.86 84.825-84.562 84.825"/>
        <path fill="#FFF" d="M337.32 85.59c0 46.717-9.786 84.589-21.856 84.589-12.07 0-21.856-37.872-21.856-84.59C293.608 38.872 303.393 1 315.464 1c12.07 0 21.856 37.872 21.856 84.59"/>
        <path stroke="#5493F7" stroke-width="1.07" d="M337.32 85.59c0 46.717-9.786 84.589-21.856 84.589-12.07 0-21.856-37.872-21.856-84.59C293.608 38.872 303.393 1 315.464 1c12.07 0 21.856 37.872 21.856 84.59z"/>
        <path fill="#2845AE" d="M333.196 85.179c0 44.676-7.94 80.893-17.732 80.893-9.793 0-17.732-36.217-17.732-80.893s7.939-80.894 17.732-80.894 17.732 36.218 17.732 80.894"/>
        <path stroke="#2845AE" stroke-width="1.07" d="M333.196 85.179c0 44.676-7.94 80.893-17.732 80.893-9.793 0-17.732-36.217-17.732-80.893s7.939-80.894 17.732-80.894 17.732 36.218 17.732 80.894z"/>
        <path fill="#FFF" d="M157.393 1.124c-46.702 0-84.562 37.977-84.562 84.824 0 46.848 37.86 84.825 84.562 84.825"/>
        <path stroke="#5493F7" stroke-width="1.07" d="M157.393 1.124c-46.702 0-84.562 37.977-84.562 84.824 0 46.848 37.86 84.825 84.562 84.825"/>
        <path fill="#FFF" d="M136.082 85.59c0 46.717 9.786 84.589 21.856 84.589 12.07 0 21.856-37.872 21.856-84.59C179.794 38.872 170.009 1 157.938 1c-12.07 0-21.856 37.872-21.856 84.59"/>
        <path stroke="#5493F7" stroke-width="1.07" d="M136.082 85.59c0 46.717 9.786 84.589 21.856 84.589 12.07 0 21.856-37.872 21.856-84.59C179.794 38.872 170.009 1 157.938 1c-12.07 0-21.856 37.872-21.856 84.59z"/>
        <path fill="#2845AE" d="M140.206 85.179c0 44.676 7.94 80.893 17.732 80.893 9.793 0 17.732-36.217 17.732-80.893s-7.939-80.894-17.732-80.894-17.732 36.218-17.732 80.894"/>
        <path stroke="#2845AE" stroke-width="3.21" d="M140.206 85.179c0 44.676 7.94 80.893 17.732 80.893 9.793 0 17.732-36.217 17.732-80.893s-7.939-80.894-17.732-80.894-17.732 36.218-17.732 80.894z"/>
        <g transform="translate(0 36.314)">
            <mask id="b" fill="#fff">
                <use xlink:href="#a"/>
            </mask>
            <path fill="#5493F7" d="M45.506 95.804c-9.434 0-17.515-.324-24.176-.974C7.749 93.507.792 90.93.063 86.948c-.765-4.176 5.444-9.06 18.984-14.93 12.63-5.477 30.93-11.484 54.39-17.855l-.002 1.311C26.79 68.141.041 79.765 1.315 86.721c.582 3.17 8.843 10.202 72.855 7.03 46.072-2.283 106.612-9.255 170.468-19.632 59.115-9.607 115.41-21.262 158.515-32.82 57.553-15.43 71.28-24.96 74.339-29.266.727-1.024 1.017-1.97.863-2.813-.391-2.135-4.251-5.922-25.705-7.295-15.882-1.015-38.852-.519-66.427 1.436l-.735-1.167c27.631-1.96 51.305-2.551 67.244-1.53 17.26 1.104 26.05 3.829 26.875 8.33.218 1.189-.144 2.456-1.075 3.767-11.274 15.873-111.739 42.787-233.689 62.606-63.9 10.384-124.491 17.361-170.61 19.647-10.635.527-20.23.79-28.727.79" mask="url(#b)"/>
        </g>
        <path fill="#5493F7" d="M179.183 67.522l-.214-1.202c17.261-2.82 34.96-5.51 52.605-7.994 8.6-1.21 17.808-2.7 26.713-4.142 13.21-2.137 25.443-4.16 37.645-5.551l.15 1.21c-12.171 1.387-24.388 3.408-37.583 5.543-8.911 1.442-18.126 2.934-26.74 4.146a2412.797 2412.797 0 0 0-52.576 7.99"/>
    </g>
</svg>
