<svg xmlns="http://www.w3.org/2000/svg" xmlns:xlink="http://www.w3.org/1999/xlink" width="264" height="34" viewBox="0 0 264 34">
    <defs>
        <path id="a" d="M.344.348H27.08v21.75H.344z"/>
        <path id="c" d="M0 .027h24.534v26.806H0z"/>
        <path id="e" d="M.124 0H21.72V21.55H.124z"/>
    </defs>
    <g fill="none" fill-rule="evenodd">
        <path fill="#5493F7" d="M8.745 3.953c-5.481 7.559 15.6 12.82 23.06 11.55 1.31-.223 5.296-.901 2.57-6.346a42.096 42.096 0 0 0-1.346-2.227 41.71 41.71 0 0 0-1.806-2.198c-.18-.188-.363-.371-.55-.55C29.217 2.853 26.187.091 18.426 0c-4.595.1-7.852 1.43-9.681 3.953M15.85 27.64c.972 3.67 4.46 6.472 6.22 6.357.062-.005 6.68-1.264 10.302-7.444 2.82-4.809 1.86-9.452-1.975-9.553-1.38.103-16.399 3.646-14.547 10.64"/>
        <path fill="#FFF" d="M12.593 3.958c-2.31 3.235-10.01 5.514-11.277 5.16l-.008-.016c.052-.097.104-.194.158-.29.438-.788.94-1.54 1.5-2.25.559-.71 1.175-1.379 1.842-2a18.606 18.606 0 0 1 3.62-2.623c1.078-.581 2.182-.619 2.545-.631 3.43.06 1.639 2.624 1.62 2.65M11.7 28.427c.172 1.054-.004 5.218-.235 5.57-.2.01-.615.034-1.818-.594a19.357 19.357 0 0 1-1.824-1.104 18.922 18.922 0 0 1-2.227-1.78 18.254 18.254 0 0 1-1.91-2.074c-.579-.737-1.1-1.516-1.553-2.333a17.098 17.098 0 0 1-1.159-2.554A16.674 16.674 0 0 1 0 17.93a16.744 16.744 0 0 1 1.175-6.16c1.378 1.706 2.972 3.25 4.327 4.975 1.29 1.642 3.065 4.318 3.427 4.89 2.242 3.55 2.6 5.74 2.771 6.792"/>
        <g transform="translate(9.154 2.615)">
            <mask id="b" fill="#fff">
                <use xlink:href="#a"/>
            </mask>
            <path fill="#FFF" d="M27.08 14.908c0 2.345-.452 4.587-1.274 6.643-2.156 2.29-16.696-3.346-16.838-3.408-1.989-.86-8.041-3.48-8.587-7.595C-.405 4.628 11.75.504 17.094.348c.64.007 2.59.03 3.726.941 3.837 3.316 6.26 8.188 6.26 13.619" mask="url(#b)"/>
        </g>
        <path fill="#FFF" d="M26.494 33.672c-1.588.74-3.337.201-2.882-1.344.872-2.967 8.487-6.02 10.17-6.174l.197.046c.018.068.034.17.007.236a18.42 18.42 0 0 1-7.492 7.236"/>
        <g>
            <path fill="#FFF" d="M105.697 9.51c-.149-.013-.46-.04-1.112-.04-.57 0-1.084.055-1.586.151-2.034.4-3.336 1.532-4.461 2.718V9.98H92.15V31.02h6.387v-8.788c0-1.035.054-1.987.176-2.856.108-.87.366-1.615.746-2.235.38-.621.922-1.104 1.64-1.45.706-.344 1.668-.523 2.889-.523.488 0 .949.041 1.383.11.434.069.881.18 1.342.331V9.676a5.607 5.607 0 0 0-1.017-.165M122.991 9.51c-.149-.013-.46-.04-1.112-.04-.57 0-1.085.055-1.586.151-2.034.4-3.336 1.532-4.461 2.718V9.98h-6.387V31.02h6.387v-8.788c0-1.035.054-1.987.176-2.856.108-.87.366-1.615.746-2.235.38-.621.922-1.104 1.64-1.45.706-.344 1.668-.523 2.889-.523.488 0 .949.041 1.383.11.434.069.881.18 1.342.331V9.676a5.607 5.607 0 0 0-1.017-.165"/>
            <g transform="translate(45.73 4.082)">
                <mask id="d" fill="#fff">
                    <use xlink:href="#c"/>
                </mask>
                <path fill="#FFF" d="M8.853 5.773H0V.027h24.534v5.746H15.68v21.06H8.853z" mask="url(#d)"/>
            </g>
            <g transform="translate(67.576 10.367)">
                <mask id="f" fill="#fff">
                    <use xlink:href="#e"/>
                </mask>
                <path fill="#FFF" d="M15.222 8.445c.028-1.064-.332-1.98-1.078-2.747-.747-.755-1.715-1.145-2.904-1.145-.718 0-1.354.107-1.908.336-.553.23-1.023.512-1.41.862s-.691.755-.912 1.226a3.907 3.907 0 0 0-.374 1.455h8.586v.013zm5.503 9.052c-1.037 1.293-2.364 2.29-3.94 3.003-1.59.7-3.236 1.051-4.95 1.051-1.618 0-3.139-.256-4.576-.754-1.438-.512-2.669-1.226-3.733-2.182a10.208 10.208 0 0 1-2.489-3.408c-.608-1.32-.913-2.802-.913-4.431 0-1.63.305-3.112.913-4.432a10.487 10.487 0 0 1 2.489-3.408c1.05-.942 2.295-1.67 3.733-2.182C8.696.243 10.217 0 11.835 0c1.507 0 2.876.256 4.092.754a8.643 8.643 0 0 1 3.125 2.182c.857.943 1.507 2.075 1.977 3.408.456 1.32.691 2.802.691 4.432v1.98H6.636c.263 1.212.83 2.181 1.687 2.895.871.714 1.936 1.078 3.208 1.078 1.064 0 1.977-.229 2.71-.7a7.54 7.54 0 0 0 1.935-1.792l4.549 3.26z" mask="url(#f)"/>
            </g>
            <path fill="#FFF" d="M139.085 24.164v-.35c0-.446-.301-.85-.726-.985-.93-.31-2.04-.5-3.216-.5-2.642 0-4.27 1.012-4.27 2.887v.08c0 1.605 1.382 2.536 3.366 2.536 2.902 0 4.846-1.524 4.846-3.668m-14.167 1.362v-.081c0-4.572 3.614-6.676 8.774-6.676 2.19 0 3.778.351 5.324.863v-.35c0-2.455-1.587-3.83-4.667-3.83-2.354 0-4.024.431-6.009 1.132l-1.546-4.53c2.395-1.012 4.749-1.687 8.445-1.687 3.367 0 5.803.863 7.35 2.347 1.628 1.564 2.354 3.87 2.354 6.676v12.137h-5.968v-2.265c-1.505 1.604-3.572 2.656-6.583 2.656-4.107.014-7.474-2.252-7.474-6.392M157.74 31.02V5.25h18.77v2.688h-15.822v9.204h14.143v2.65h-14.143v11.23h-2.949zm22.293-23.194v-3.13h3.284v3.13h-3.284zm.186 23.194V11.986h2.874V31.02h-2.874zm7.777 0V11.986h2.873V15.3c1.27-2.062 3.284-3.719 6.606-3.719 4.664 0 7.389 3.093 7.389 7.621V31.02h-2.874V19.902c0-3.534-1.94-5.743-5.336-5.743-3.322 0-5.785 2.393-5.785 5.964V31.02h-2.873zm29.309.405c-4.628 0-9.218-3.608-9.218-9.866v-.074c0-6.222 4.59-9.904 9.218-9.904 3.582 0 5.896 1.915 7.389 4.05V4.144h2.873V31.02h-2.873v-3.828c-1.567 2.282-3.844 4.233-7.39 4.233zm.522-2.54c3.583 0 6.979-2.982 6.979-7.363v-.074c0-4.381-3.396-7.326-6.979-7.326-3.732 0-6.792 2.724-6.792 7.326v.074c0 4.491 3.135 7.363 6.792 7.363zm22.816 2.577c-5.3 0-9.628-4.013-9.628-9.903v-.074c0-5.486 3.918-9.904 9.255-9.904 5.71 0 8.994 4.492 8.994 10.051 0 .368 0 .59-.038.92h-15.3c.41 4.124 3.358 6.444 6.792 6.444 2.65 0 4.515-1.068 6.083-2.688l1.79 1.583c-1.94 2.135-4.29 3.571-7.948 3.571zm-6.717-11.008h12.427c-.299-3.46-2.314-6.48-6.158-6.48-3.358 0-5.896 2.762-6.27 6.48zm18.599 10.566V11.986h2.873v4.97c1.418-3.166 4.217-5.448 7.874-5.301v3.056h-.224c-4.217 0-7.65 2.982-7.65 8.725v7.584h-2.873z"/>
        </g>
    </g>
</svg>
