<?xml version="1.0" encoding="UTF-8"?>
<svg width="480px" height="172px" viewBox="0 0 480 172" version="1.1" xmlns="http://www.w3.org/2000/svg" xmlns:xlink="http://www.w3.org/1999/xlink">
    <title>Group 30</title>
    <defs>
        <polygon id="path-1" points="0 0.170959436 479.668541 0.170959436 479.668541 95.8040057 0 95.8040057"></polygon>
    </defs>
    <g id="Finder" stroke="none" stroke-width="1" fill="none" fill-rule="evenodd">
        <g id="Not-Found" transform="translate(-480.000000, -493.000000)">
            <g id="Group-30" transform="translate(480.000000, 494.000000)">
                <g id="Group-4" transform="translate(315.876289, 0.000000)">
                    <path d="M0.117659948,0.123578554 C46.8202911,0.123578554 84.6798305,38.100985 84.6798305,84.9484913 C84.6798305,131.795998 46.8202911,169.773404 0.117659948,169.773404" id="Fill-1"></path>
                    <path d="M0.117659948,0.123578554 C46.8202911,0.123578554 84.6798305,38.100985 84.6798305,84.9484913 C84.6798305,131.795998 46.8202911,169.773404 0.117659948,169.773404" id="Stroke-3" stroke="#5493F7" stroke-width="1.07"></path>
                </g>
                <path d="M337.319588,84.589372 C337.319588,131.306793 327.534293,169.178744 315.463918,169.178744 C303.393113,169.178744 293.608247,131.306793 293.608247,84.589372 C293.608247,37.8719513 303.393113,0 315.463918,0 C327.534293,0 337.319588,37.8719513 337.319588,84.589372" id="Fill-5" fill="#FFFFFF"></path>
                <path d="M337.319588,84.589372 C337.319588,131.306793 327.534293,169.178744 315.463918,169.178744 C303.393113,169.178744 293.608247,131.306793 293.608247,84.589372 C293.608247,37.8719513 303.393113,0 315.463918,0 C327.534293,0 337.319588,37.8719513 337.319588,84.589372 Z" id="Stroke-7" stroke="#5493F7" stroke-width="1.07"></path>
                <path d="M333.195876,84.178744 C333.195876,128.854701 325.25694,165.072464 315.464129,165.072464 C305.670895,165.072464 297.731959,128.854701 297.731959,84.178744 C297.731959,39.5027865 305.670895,3.28502415 315.464129,3.28502415 C325.25694,3.28502415 333.195876,39.5027865 333.195876,84.178744" id="Fill-9" fill="#2845AE"></path>
                <path d="M333.195876,84.178744 C333.195876,128.854701 325.25694,165.072464 315.464129,165.072464 C305.670895,165.072464 297.731959,128.854701 297.731959,84.178744 C297.731959,39.5027865 305.670895,3.28502415 315.464129,3.28502415 C325.25694,3.28502415 333.195876,39.5027865 333.195876,84.178744 Z" id="Stroke-11" stroke="#2845AE" stroke-width="1.07"></path>
                <g id="Group-16" transform="translate(72.577320, 0.000000)">
                    <path d="M84.8160439,0.123578554 C38.1134127,0.123578554 0.253450685,38.100985 0.253450685,84.9484913 C0.253450685,131.795998 38.1134127,169.773404 84.8160439,169.773404" id="Fill-13"></path>
                    <path d="M84.8160439,0.123578554 C38.1134127,0.123578554 0.253450685,38.100985 0.253450685,84.9484913 C0.253450685,131.795998 38.1134127,169.773404 84.8160439,169.773404" id="Stroke-15" stroke="#5493F7" stroke-width="1.07"></path>
                </g>
                <path d="M136.082474,84.589372 C136.082474,131.306793 145.867769,169.178744 157.938144,169.178744 C170.008949,169.178744 179.793814,131.306793 179.793814,84.589372 C179.793814,37.8719513 170.008949,0 157.938144,0 C145.867769,0 136.082474,37.8719513 136.082474,84.589372" id="Fill-17" fill="#FFFFFF"></path>
                <path d="M136.082474,84.589372 C136.082474,131.306793 145.867769,169.178744 157.938144,169.178744 C170.008949,169.178744 179.793814,131.306793 179.793814,84.589372 C179.793814,37.8719513 170.008949,0 157.938144,0 C145.867769,0 136.082474,37.8719513 136.082474,84.589372 Z" id="Stroke-19" stroke="#5493F7" stroke-width="1.07"></path>
                <path d="M140.206186,84.178744 C140.206186,128.854701 148.145217,165.072464 157.938144,165.072464 C167.731495,165.072464 175.670103,128.854701 175.670103,84.178744 C175.670103,39.5027865 167.731495,3.28502415 157.938144,3.28502415 C148.145217,3.28502415 140.206186,39.5027865 140.206186,84.178744" id="Fill-21" fill="#2845AE"></path>
                <path d="M140.206186,84.178744 C140.206186,128.854701 148.145217,165.072464 157.938144,165.072464 C167.731495,165.072464 175.670103,128.854701 175.670103,84.178744 C175.670103,39.5027865 167.731495,3.28502415 157.938144,3.28502415 C148.145217,3.28502415 140.206186,39.5027865 140.206186,84.178744 Z" id="Stroke-23" stroke="#2845AE" stroke-width="3.21"></path>
                <g id="Group-27" transform="translate(0.000000, 35.314010)">
                    <mask id="mask-2" fill="white">
                        <use xlink:href="#path-1"></use>
                    </mask>
                    <g id="Clip-26"></g>
                    <path d="M45.5056976,95.8040057 C36.0716393,95.8040057 27.9905782,95.4795015 21.3295703,94.8304931 C7.74866844,93.5071903 0.792275862,90.928857 0.0627267905,86.9475698 C-0.702047745,82.772423 5.50739523,77.8888455 19.04713,72.0182696 C31.6773687,66.5408917 49.9767851,60.5341926 73.4365199,54.1625317 L73.4352467,55.4744558 C26.790366,68.1414981 0.0410822281,79.7650698 1.31556499,86.7212597 C1.89657294,89.8917079 10.1580053,96.9233345 74.170313,93.7507792 C120.242249,91.4682925 180.78209,84.4960881 244.637793,74.1186968 C303.753337,64.5116869 360.048297,52.8565076 403.153231,41.2999439 C460.706122,25.8695587 474.43217,16.3392498 477.491692,12.0326156 C478.218695,11.0089523 478.508987,10.062833 478.354504,9.22038635 C477.963629,7.08498017 474.103682,3.29797407 452.649676,1.92536346 C436.768085,0.909707475 413.797687,1.40615675 386.222515,3.36118917 L385.487873,2.19381693 C413.119491,0.234148741 436.7927,-0.357123188 452.731586,0.664011442 C469.991215,1.76816857 478.782302,4.49273951 479.607342,8.99407628 C479.825061,10.1825202 479.463469,11.4501937 478.531905,12.7608535 C467.257634,28.6337445 366.793337,55.5482067 244.843204,75.3665629 C180.94209,85.7511186 120.351745,92.7283802 74.2335491,95.0138169 C63.5975809,95.5406095 54.0026737,95.8040057 45.5056976,95.8040057" id="Fill-25" fill="#5493F7" mask="url(#mask-2)"></path>
                </g>
                <path d="M179.183297,66.5217391 L178.969072,65.3204391 C196.230059,62.4998013 213.928829,59.8103843 231.573723,57.3261267 C240.174522,56.115889 249.382362,54.6257408 258.287318,53.1843432 C271.497127,51.0466223 283.729563,49.0230595 295.932305,47.6328502 L296.082474,48.8426816 C283.9107,50.2296408 271.693959,52.2507661 258.498997,54.3864558 C249.587678,55.8282595 240.373051,57.3196266 231.759102,58.5323018 C214.12354,61.0145281 196.434527,63.7027263 179.183297,66.5217391" id="Fill-28" fill="#5493F7"></path>
            </g>
        </g>
    </g>
</svg>