<?xml version="1.0" encoding="UTF-8"?>
<svg width="161px" height="26px" viewBox="0 0 161 26" version="1.1" xmlns="http://www.w3.org/2000/svg" xmlns:xlink="http://www.w3.org/1999/xlink">
    <title>Group 5</title>
    <defs>
        <polygon id="path-1" points="0 0.0156831205 14.4993726 0.0156831205 14.4993726 15.855627 0 15.855627"></polygon>
        <polygon id="path-3" points="0.07354811 -3.18367347e-05 12.8368131 -3.18367347e-05 12.8368131 12.7346939 0.07354811 12.7346939"></polygon>
        <polygon id="path-5" points="0.212703546 0.21466545 16.7259615 0.21466545 16.7259615 13.6488597 0.212703546 13.6488597"></polygon>
    </defs>
    <g id="Finder" stroke="none" stroke-width="1" fill="none" fill-rule="evenodd">
        <g id="Transaction-Details---Pending" transform="translate(-40.000000, -26.000000)">
            <g id="Group-5" transform="translate(40.000000, 26.000000)">
                <g id="finder-logo" transform="translate(28.000000, 0.000000)">
                    <g id="Group-13" transform="translate(1.613793, 4.775510)">
                        <path d="M35.440339,3.20813206 C35.3521865,3.1999792 35.1678675,3.18367347 34.7832017,3.18367347 C34.4466191,3.18367347 34.1420921,3.21628493 33.8455789,3.27335499 C32.6434984,3.50978808 31.8741668,4.17832302 31.2090156,4.87946943 L31.2090156,3.48532948 L27.4344828,3.48532948 L27.4344828,15.9183673 L31.2090156,15.9183673 L31.2090156,10.7250738 C31.2090156,10.1136089 31.2410711,9.55106117 31.3131959,9.03743067 C31.3773069,8.52380016 31.5295704,8.08354544 31.7539588,7.71666651 C31.9783471,7.34978757 32.2989019,7.06443729 32.7236371,6.86061566 C33.1403583,6.65679403 33.7093431,6.55080679 34.4305914,6.55080679 C34.7190907,6.55080679 34.9915623,6.57526538 35.2480062,6.61602971 C35.50445,6.65679403 35.7689077,6.72201696 36.0413793,6.81169847 L36.0413793,3.30596645 C35.8570603,3.25704926 35.6567135,3.2244378 35.440339,3.20813206" id="Fill-1" fill="#FFFFFF"></path>
                        <path d="M45.6610287,3.20813206 C45.5728761,3.1999792 45.3885571,3.18367347 45.0038914,3.18367347 C44.6673088,3.18367347 44.3627817,3.21628493 44.0662685,3.27335499 C42.864188,3.50978808 42.0948565,4.17832302 41.4297053,4.87946943 L41.4297053,3.48532948 L37.6551724,3.48532948 L37.6551724,15.9183673 L41.4297053,15.9183673 L41.4297053,10.7250738 C41.4297053,10.1136089 41.4617607,9.55106117 41.5338856,9.03743067 C41.5979965,8.52380016 41.7502601,8.08354544 41.9746484,7.71666651 C42.1990368,7.34978757 42.5195916,7.06443729 42.9443267,6.86061566 C43.361048,6.65679403 43.9300327,6.55080679 44.6512811,6.55080679 C44.9397804,6.55080679 45.212252,6.57526538 45.4686958,6.61602971 C45.7251397,6.65679403 45.9895974,6.72201696 46.262069,6.81169847 L46.262069,3.30596645 C46.07775,3.25704926 45.8774032,3.2244378 45.6610287,3.20813206" id="Fill-3" fill="#FFFFFF"></path>
                        <g id="Group-7">
                            <mask id="mask-2" fill="white">
                                <use xlink:href="#path-1"></use>
                            </mask>
                            <g id="Clip-6"></g>
                            <polygon id="Fill-5" fill="#FFFFFF" mask="url(#mask-2)" points="5.23198234 3.41107088 -8.2523511e-06 3.41107088 -8.2523511e-06 0.015675279 14.4993726 0.015675279 14.4993726 3.41107088 9.26738203 3.41107088 9.26738203 15.855627 5.23198234 15.855627"></polygon>
                        </g>
                        <g id="Group-10" transform="translate(12.910345, 3.714286)">
                            <mask id="mask-4" fill="white">
                                <use xlink:href="#path-3"></use>
                            </mask>
                            <g id="Clip-9"></g>
                            <path d="M8.99639403,4.99037633 C9.01273624,4.36168041 8.80028753,3.82037633 8.35904789,3.36678245 C7.91780826,2.92098857 7.34583096,2.69025184 6.64311598,2.69025184 C6.21821856,2.69025184 5.84234776,2.75384571 5.51550359,2.88923143 C5.18865942,3.02445796 4.91084187,3.19160082 4.68205095,3.39853959 C4.45326003,3.60555796 4.27349573,3.84433347 4.14275806,4.1229049 C4.01202039,4.40147633 3.93848045,4.68792735 3.92213825,4.98241714 L8.99639403,4.98241714 L8.99639403,4.99037633 Z M12.2484935,10.3389478 C11.6356607,11.103109 10.8512347,11.692009 9.91972882,12.1138457 C8.98005182,12.5277233 8.00769041,12.7347416 6.99447347,12.7347416 C6.03845426,12.7347416 5.13963279,12.5834376 4.28983794,12.2889478 C3.44004309,11.9864988 2.71281481,11.5647416 2.08363977,10.99956 C1.46263584,10.4424171 0.972369585,9.77392531 0.612840995,8.98588653 C0.253312405,8.20588653 0.07354811,7.33037633 0.07354811,6.36739469 C0.07354811,5.40425388 0.253312405,4.52874367 0.612840995,3.74874367 C0.972369585,2.96882327 1.46263584,2.30017224 2.08363977,1.7351498 C2.7046437,1.17800694 3.44004309,0.748131429 4.28983794,0.445682449 C5.13963279,0.143313061 6.03845426,-3.18367347e-05 6.99447347,-3.18367347e-05 C7.88512384,-3.18367347e-05 8.69406317,0.151192653 9.41312035,0.445682449 C10.1403486,0.748131429 10.7531815,1.17800694 11.2597899,1.7351498 C11.7663984,2.29229265 12.1504403,2.96078449 12.4282578,3.74874367 C12.6979043,4.52874367 12.8368131,5.40425388 12.8368131,6.36739469 L12.8368131,7.5373151 L3.92213825,7.5373151 C4.07738923,8.25364163 4.4124045,8.82670286 4.91901297,9.24853959 C5.43379254,9.67045592 6.06296758,9.88527429 6.81470918,9.88527429 C7.44388421,9.88527429 7.98317709,9.75004776 8.41624562,9.47147633 C8.84931415,9.1929049 9.23335605,8.84262122 9.56020023,8.41282531 L12.2484935,10.3389478 Z" id="Fill-8" fill="#FFFFFF" mask="url(#mask-4)"></path>
                        </g>
                        <path d="M55.1723101,11.8666981 L55.1723101,11.6595009 C55.1723101,11.3965995 54.9943479,11.1575258 54.7435831,11.0778346 C54.1935183,10.8944651 53.538294,10.7828974 52.8426238,10.7828974 C51.2814104,10.7828974 50.318797,11.3805816 50.318797,12.4882896 L50.318797,12.5361044 C50.318797,13.4844299 51.135805,14.0342994 52.3087374,14.0342994 C54.0236453,14.0342994 55.1723101,13.1337885 55.1723101,11.8666981 M46.8,12.6716591 L46.8,12.6237647 C46.8,9.92231185 48.9355458,8.67904905 51.9851698,8.67904905 C53.27944,8.67904905 54.2177858,8.88632593 55.1318641,9.18907289 L55.1318641,8.9818757 C55.1318641,7.5314954 54.1935183,6.71864491 52.3734509,6.71864491 C50.9821104,6.71864491 49.9952295,6.97365683 48.8222971,7.3880512 L47.9082188,4.71042603 C49.3238268,4.11274184 50.7151672,3.71428571 52.8992481,3.71428571 C54.8891885,3.71428571 56.329064,4.22430956 57.2431423,5.10091303 C58.2057558,6.02533125 58.6344828,7.3880512 58.6344828,9.04570838 L58.6344828,16.2179187 L55.1075966,16.2179187 L55.1075966,14.8790264 C54.2177858,15.827352 52.9963184,16.4489796 51.2166969,16.4489796 C48.7899404,16.4569923 46.8,15.1181001 46.8,12.6716591" id="Fill-11" fill="#FFFFFF"></path>
                    </g>
                    <path d="M67.8110483,20.6938776 L67.8110483,5.46530612 L78.9048,5.46530612 L78.9048,7.05342857 L69.5534069,7.05342857 L69.5534069,12.4922041 L77.9123172,12.4922041 L77.9123172,14.0585714 L69.5534069,14.0585714 L69.5534069,20.6938776 L67.8110483,20.6938776 Z M80.9863882,6.98816327 L80.9863882,5.13897959 L82.9272434,5.13897959 L82.9272434,6.98816327 L80.9863882,6.98816327 Z M81.0966641,20.6938776 L81.0966641,9.4464898 L82.7949123,9.4464898 L82.7949123,20.6938776 L81.0966641,20.6938776 Z M85.6925419,20.6938776 L85.6925419,9.4464898 L87.3907902,9.4464898 L87.3907902,11.404449 C88.1406661,10.1861633 89.3316454,9.20718367 91.2945557,9.20718367 C94.0514523,9.20718367 95.6614799,11.0346122 95.6614799,13.7104898 L95.6614799,20.6938776 L93.9632316,20.6938776 L93.9632316,14.1238367 C93.9632316,12.0353469 92.8163626,10.7300408 90.8093419,10.7300408 C88.8464316,10.7300408 87.3907902,12.1441224 87.3907902,14.2543673 L87.3907902,20.6938776 L85.6925419,20.6938776 Z M103.014254,20.9331837 C100.279413,20.9331837 97.5666267,18.8011837 97.5666267,15.1028163 L97.5666267,15.0593061 C97.5666267,11.3826939 100.279413,9.20718367 103.014254,9.20718367 C105.131551,9.20718367 106.498972,10.338449 107.381178,11.6002449 L107.381178,4.81265306 L109.079427,4.81265306 L109.079427,20.6938776 L107.381178,20.6938776 L107.381178,18.4313469 C106.454861,19.7801633 105.109496,20.9331837 103.014254,20.9331837 Z M103.323027,19.4320816 C105.440323,19.4320816 107.447344,17.6699184 107.447344,15.0810612 L107.447344,15.037551 C107.447344,12.4486939 105.440323,10.7082857 103.323027,10.7082857 C101.117509,10.7082857 99.3089853,12.3181633 99.3089853,15.037551 L99.3089853,15.0810612 C99.3089853,17.7351837 101.16162,19.4320816 103.323027,19.4320816 Z M116.807139,20.9549388 C113.675305,20.9549388 111.116905,18.5836327 111.116905,15.1028163 L111.116905,15.0593061 C111.116905,11.8177959 113.432698,9.20718367 116.586587,9.20718367 C119.961029,9.20718367 121.901884,11.8613061 121.901884,15.1463265 C121.901884,15.3638776 121.901884,15.4944082 121.879829,15.6902041 L112.837208,15.6902041 C113.079815,18.1267755 114.822174,19.4973469 116.851249,19.4973469 C118.417167,19.4973469 119.519925,18.866449 120.446242,17.9092245 L121.504891,18.8446939 C120.358022,20.1064898 118.968546,20.9549388 116.807139,20.9549388 Z M112.837208,14.4501633 L120.18158,14.4501633 C120.005139,12.4051837 118.81416,10.6212653 116.542477,10.6212653 C114.557511,10.6212653 113.05776,12.252898 112.837208,14.4501633 Z M123.829086,20.6938776 L123.829086,9.4464898 L125.527334,9.4464898 L125.527334,12.3834286 C126.365431,10.5124898 128.019569,9.16367347 130.180976,9.25069388 L130.180976,11.0563673 L130.048644,11.0563673 C127.55641,11.0563673 125.527334,12.8185306 125.527334,16.2123265 L125.527334,20.6938776 L123.829086,20.6938776 Z" id="Finder" fill="#FFFFFF"></path>
                </g>
                <g id="Group-14" transform="translate(0.000000, 2.000000)">
                    <path d="M5.4011485,2.44147571 C2.01575543,7.11028814 15.0363907,10.360005 19.6445904,9.57531428 C20.4534382,9.43765351 22.9150983,9.01860149 21.2313553,5.6555027 C20.9946081,5.23499395 20.6648363,4.68265135 20.4004143,4.2803517 C20.0808752,3.86008575 19.6341252,3.31624072 19.2845857,2.92243865 C19.1738866,2.8066288 19.0603967,2.69348961 18.9450464,2.58253551 C18.0459649,1.76288336 16.1745451,0.0570551702 11.3807615,0 C8.5425849,0.0621537173 6.53069815,0.88350538 5.4011485,2.44147571" id="Fill-1" fill="#5493F7"></path>
                    <path d="M9.78985404,17.0718519 C10.3900913,19.3390523 12.5438703,21.0693945 13.6316006,20.9978601 C13.6697145,20.9952969 17.7572617,20.2172721 19.9945718,16.4005463 C21.7359445,13.4301176 21.1430105,10.562447 18.774698,10.5 C17.9227263,10.5633791 8.64597988,12.7518216 9.78985404,17.0718519" id="Fill-3" fill="#5493F7"></path>
                    <path d="M7.77826294,2.44445289 C6.35117589,4.44258193 1.59500978,5.85050527 0.812911044,5.63138698 C0.811250537,5.62851547 0.809352815,5.62476042 0.807692308,5.6221098 C0.839716369,5.56180809 0.87221486,5.50194816 0.905424998,5.44230911 C1.17608762,4.95591953 1.48612797,4.49183937 1.8315134,4.05294014 C2.17689883,3.6142618 2.55762933,3.20142705 2.96967225,2.81752828 C3.38171517,2.43385039 3.82530772,2.07932937 4.29665446,1.75794116 C4.58914088,1.5580399 4.89253921,1.37117088 5.20542615,1.19755498 C5.8712894,0.838616259 6.55352051,0.815423296 6.77768894,0.807692308 C8.89554684,0.845463706 7.78964927,2.42854914 7.77826294,2.44445289" id="Fill-5" fill="#FFFFFF"></path>
                    <path d="M7.22663586,17.5576731 C7.33284122,18.2089476 7.22393156,20.7808291 7.08109517,20.9977679 C6.95792645,21.0046403 6.70150933,21.0193014 5.95856347,20.6310108 C5.56840627,20.4234643 5.19226227,20.1957587 4.83160655,19.9494977 C4.34335689,19.6159572 3.88362533,19.2482837 3.45659126,18.8503717 C3.02931135,18.4522306 2.63472892,18.02408 2.27702335,17.568898 C1.91907193,17.1139451 1.59775154,16.6324189 1.31724154,16.1282137 C1.03673153,15.6237795 0.79678608,15.0964373 0.601584553,14.5503105 C0.406383027,14.0039546 0.255925427,13.4388141 0.154391132,12.8580963 C0.0528568365,12.2776075 0,11.6817703 0,11.0744792 C0,10.467188 0.0528568365,9.87157992 0.154391132,9.29109112 C0.255925427,8.71037324 0.406383027,8.14523281 0.601584553,7.59910601 C0.640919874,7.48846036 0.682467806,7.37873102 0.725490812,7.26991801 L0.726228349,7.26923077 C1.57710049,8.32368615 2.56146688,9.27734632 3.39832582,10.3423394 C4.1951119,11.3564767 5.29158395,13.0092891 5.51481189,13.3625305 C6.89990686,15.5550555 7.12067634,16.9077731 7.22663586,17.5576731" id="Fill-7" fill="#FFFFFF"></path>
                    <g id="Group-11" transform="translate(5.653846, 1.615385)">
                        <mask id="mask-6" fill="white">
                            <use xlink:href="#path-5"></use>
                        </mask>
                        <g id="Clip-10"></g>
                        <path d="M16.7260087,9.20785385 C16.7260087,10.6565664 16.44685,12.0408141 15.9389462,13.3110266 C14.6072298,14.7252958 5.6270375,11.2441967 5.53916731,11.2060299 C4.31063365,10.6744862 0.572263462,9.05658266 0.235152885,6.514994 C-0.250135577,2.85888579 7.25840769,0.311246284 10.5578981,0.21466545 C10.9536673,0.219087223 12.1574654,0.233050717 12.8594846,0.79624498 C15.2291529,2.8439914 16.7260087,5.85335711 16.7260087,9.20785385" id="Fill-9" fill="#FFFFFF" mask="url(#mask-6)"></path>
                    </g>
                    <path d="M16.3641,20.7972662 C15.3829482,21.2545334 14.3031146,20.9215467 14.5835786,19.9671576 C15.122315,18.1345513 19.825989,16.24912 20.8652168,16.1538462 C20.9018093,16.1625717 20.9502059,16.1738914 20.9867984,16.182617 C20.9978942,16.224594 21.0078096,16.2875597 20.9910478,16.327886 C19.9145193,18.2272311 18.3042121,19.784628 16.3641,20.7972662" id="Fill-12" fill="#FFFFFF"></path>
                </g>
            </g>
        </g>
    </g>
</svg>